Title                            : The Hunger Games
Year                             : 2012
Genre                            : Action | Adventure | Sci-Fi
iMDB URL                         : http://www.imdb.com/title/tt1392170/

Complete name                    : The.Hunger.Games.2012.BRRIP.720P.H264-ZEKTORM.mp4
Format                           : MPEG-4
Format profile                   : Base Media
Codec ID                         : isom
File size                        : 2.90 GiB
Duration                         : 2h 22mn
Overall bit rate                 : 2909 Kbps
Subtitles                        : English (Format: srt)

Video
ID                               : 1
Format                           : AVC
Format/Info                      : Advanced Video Codec
Format profile                   : High@L4.0
Format settings, CABAC           : Yes
Format settings, ReFrames        : 12 frames
Codec ID                         : avc1
Codec ID/Info                    : Advanced Video Coding
Duration                         : 2h 22mn
Bit rate mode                    : Variable
Bit rate                         : 2464 Kbps
Width                            : 1280 pixels
Height                           : 528 pixels
Display aspect ratio             : 2.424
Frame rate mode                  : Constant
Frame rate                       : 23.976 fps
Resolution                       : 24 bits
Colorimetry                      : 4:2:0
Scan type                        : Progressive
Bits/(Pixel*Frame)               : 0.152
Stream size                      : 2.45 GiB (85%)
Title                            : Video
Writing library                  : x264

Audio
ID                               : 2
Format                           : AAC
Format/Info                      : Advanced Audio Codec
Format version                   : Version 4
Format profile                   : LC
Format settings, SBR             : No
Codec ID                         : 40
Duration                         : 2h 22mn
Bit rate mode                    : Variable
Bit rate                         : 441 Kbps
Maximum bit rate                 : 556 Kbps
Channel(s)                       : 6 channels
Channel positions                : Front: L C R, Rear: L R, LFE
Sampling rate                    : 48.0 KHz
Resolution                       : 16 bits
Stream size                      : 450 MiB (15%)
Language                         : English


Screenshots:

[img]http://img6.imageshack.us/img6/1630/snapthg1.png[/img]

[img]http://img94.imageshack.us/img94/5214/snapthg2.png[/img]
